<?xml version="1.0" encoding="utf-8"?>
<!-- Generator: Adobe Illustrator 19.0.0, SVG Export Plug-In . SVG Version: 6.00 Build 0)  -->
<svg version="1.1" id="Calque_1" xmlns="http://www.w3.org/2000/svg" xmlns:xlink="http://www.w3.org/1999/xlink" x="0px" y="0px"
	 viewBox="-402 281.5 35.6 33.8" style="enable-background:new -402 281.5 35.6 33.8;" xml:space="preserve">
<style type="text/css">
	.st0{display:none;}
	.st1{display:inline;}
	.st2{fill:none;stroke:#010101;stroke-width:2.12;stroke-linecap:round;stroke-linejoin:round;}
	.st3{fill:#010101;}
	.st4{fill:#F7FBF6;}
	.st5{fill:none;stroke:#010101;stroke-width:2;stroke-miterlimit:10;}
	.st6{display:inline;fill:#F7FBF6;}
	.st7{fill:#F7FBF6;stroke:#010101;stroke-width:2;stroke-miterlimit:10;}
	.st8{fill:none;stroke:#010101;stroke-miterlimit:10;}
</style>
<g id="Calque_1_1_" class="st0">
	<g id="XMLID_16_" class="st1">
		<path id="XMLID_444_" class="st2" d="M-540.2,286.3h16.7c1.5,0,2.7,1.2,2.7,2.7v16.7c0,1.5-1.2,2.7-2.7,2.7h-16.7
			c-1.5,0-2.7-1.2-2.7-2.7v-16.8C-542.9,287.5-541.7,286.3-540.2,286.3z"/>
		<path id="XMLID_443_" class="st2" d="M-536.9,295.6v7.3"/>
		<path id="XMLID_442_" class="st2" d="M-526.9,302.9v-4.3c0-1.7-1.3-3-3-3l0,0c-1.7,0-3,1.3-3,3v4.3"/>
		<g id="XMLID_432_">
			<path id="XMLID_433_" class="st3" d="M-523.6,309.3h-16.7c-2.1,0-3.7-1.7-3.7-3.7v-16.7c0-2.1,1.7-3.7,3.7-3.7h16.7
				c2.1,0,3.7,1.7,3.7,3.7v16.7C-519.8,307.7-521.5,309.3-523.6,309.3z M-540.2,287.3c-0.9,0-1.6,0.7-1.6,1.6v16.7
				c0,0.9,0.7,1.6,1.6,1.6h16.7c0.9,0,1.6-0.7,1.6-1.6v-16.7c0-0.9-0.7-1.6-1.6-1.6H-540.2z M-540.2,287.3c-0.9,0-1.6,0.7-1.6,1.6
				v16.7c0,0.9,0.7,1.6,1.6,1.6h16.7c0.9,0,1.6-0.7,1.6-1.6v-16.7c0-0.9-0.7-1.6-1.6-1.6H-540.2z"/>
		</g>
		<g id="XMLID_418_">
			<g id="XMLID_156_">
				<path id="XMLID_157_" class="st4" d="M-536.9,304c-0.6,0-1.1-0.5-1.1-1.1v-7.3c0-0.6,0.5-1.1,1.1-1.1c0.6,0,1.1,0.5,1.1,1.1v7.3
					C-535.8,303.5-536.3,304-536.9,304z"/>
			</g>
		</g>
		<g id="XMLID_413_">
			<g id="XMLID_153_">
				<path id="XMLID_154_" class="st4" d="M-526.9,304c-0.6,0-1.1-0.5-1.1-1.1v-4.3c0-1.1-0.9-1.9-1.9-1.9s-1.9,0.9-1.9,1.9v4.3
					c0,0.6-0.5,1.1-1.1,1.1c-0.6,0-1.1-0.5-1.1-1.1v-4.3c0-2.2,1.8-4.1,4.1-4.1s4.1,1.8,4.1,4.1v4.3
					C-525.8,303.5-526.3,304-526.9,304z"/>
			</g>
		</g>
		<path id="XMLID_148_" class="st4" d="M-536.9,289.9c-0.8,0-1.4,0.6-1.4,1.4c0,0.8,0.6,1.4,1.4,1.4c0.8,0,1.4-0.6,1.4-1.4
			C-535.5,290.5-536.1,289.9-536.9,289.9z"/>
	</g>
	<g id="XMLID_70_" class="st1">
		<path id="XMLID_409_" class="st3" d="M-374.6,302.6c0,2.8-2.3,5.1-5.1,5.1h-9.7c-2.8,0-5.1-2.3-5.1-5.1v-9.7
			c0-2.8,2.3-5.1,5.1-5.1h9.7c2.8,0,5.1,2.3,5.1,5.1V302.6z"/>
		<path id="XMLID_405_" class="st3" d="M-384.6,291.8c-3.4,0-6,2.8-6,6c0,3.2,2.8,6,6,6c3.2,0,6-2.8,6-6
			C-378.6,294.6-381.2,291.8-384.6,291.8z M-384.6,301.7c-2.2,0-3.9-1.7-3.9-3.9c0-2.2,1.7-3.9,3.9-3.9c2.2,0,3.9,1.7,3.9,3.9
			C-380.7,300-382.4,301.7-384.6,301.7z"/>
		<path id="XMLID_402_" class="st3" d="M-379.6,285.4h-9.7c-4.2,0-7.5,3.3-7.5,7.4v9.7c0,4.1,3.3,7.4,7.4,7.4h9.7
			c4.1,0,7.4-3.3,7.4-7.4v-9.7C-372.3,288.7-375.5,285.4-379.6,285.4z M-374.6,302.6c0,2.8-2.3,5.1-5.1,5.1h-9.7
			c-2.8,0-5.1-2.3-5.1-5.1v-9.7c0-2.8,2.3-5.1,5.1-5.1h9.7c2.8,0,5.1,2.3,5.1,5.1V302.6z"/>
		<path id="XMLID_55_" class="st4" d="M-384.6,291.8c-3.4,0-6,2.8-6,6c0,3.2,2.8,6,6,6c3.2,0,6-2.8,6-6
			C-378.6,294.6-381.2,291.8-384.6,291.8z M-384.6,301.7c-2.2,0-3.9-1.7-3.9-3.9c0-2.2,1.7-3.9,3.9-3.9c2.2,0,3.9,1.7,3.9,3.9
			C-380.7,300-382.4,301.7-384.6,301.7z"/>
		<path id="XMLID_46_" class="st3" d="M-379.6,285.4h-9.7c-4.2,0-7.5,3.3-7.5,7.4v9.7c0,4.1,3.3,7.4,7.4,7.4h9.7
			c4.1,0,7.4-3.3,7.4-7.4v-9.7C-372.3,288.7-375.5,285.4-379.6,285.4z M-374.6,302.6c0,2.8-2.3,5.1-5.1,5.1h-9.7
			c-2.8,0-5.1-2.3-5.1-5.1v-9.7c0-2.8,2.3-5.1,5.1-5.1h9.7c2.8,0,5.1,2.3,5.1,5.1V302.6z"/>
	</g>
	<g id="XMLID_103_" class="st1">
		<circle id="XMLID_603_" class="st3" cx="-81.8" cy="297.7" r="4.5"/>
		<circle id="XMLID_598_" class="st3" cx="-69" cy="290" r="4.5"/>
		<circle id="XMLID_597_" class="st3" cx="-69" cy="305.3" r="4.5"/>
		<polyline id="XMLID_596_" class="st5" points="-69,291.4 -81.8,297.7 -69,305.3 		"/>
		<circle id="XMLID_595_" class="st3" cx="-81.8" cy="297.7" r="4.5"/>
		<circle id="XMLID_590_" class="st3" cx="-69" cy="290" r="4.5"/>
		<circle id="XMLID_523_" class="st3" cx="-69" cy="305.3" r="4.5"/>
	</g>
	<g id="XMLID_100_" class="st1">
		<circle id="XMLID_454_" class="st3" cx="-225.7" cy="297.4" r="11.7"/>
		<path id="XMLID_453_" class="st4" d="M-226.4,301.9c-0.5,2.8-1.2,5.5-3.1,6.9c-0.6-4.2,0.9-7.4,1.6-10.8c-1.2-2,0.1-5.9,2.6-5
			c3,1.2-2.6,7.3,1.2,8.1c4,0.8,5.6-6.9,3.1-9.4c-3.6-3.6-10.3-0.1-9.5,5.1c0.2,1.3,1.5,1.6,0.5,3.4c-2.3-0.5-3-2.3-2.9-4.7
			c0.1-3.9,3.5-6.7,6.9-7c4.3-0.5,8.3,1.6,8.9,5.6c0.6,4.6-1.9,9.5-6.5,9.1C-224.9,303.1-225.4,302.5-226.4,301.9z"/>
	</g>
	<path id="XMLID_408_" class="st6" d="M-378.1,289.9c-0.8,0-1.4,0.6-1.4,1.4c0,0.8,0.6,1.4,1.4,1.4c0.8,0,1.4-0.6,1.4-1.4
		C-376.7,290.5-377.3,289.9-378.1,289.9z"/>
</g>
<g id="Calque_2">
	<g id="XMLID_128_">
		<path id="XMLID_165_" class="st3" d="M-384.6,292.1c-3.4,0-6,2.8-6,6c0,3.2,2.8,6,6,6c3.2,0,6-2.8,6-6
			C-378.6,294.9-381.2,292.1-384.6,292.1z M-384.6,302.1c-2.2,0-3.9-1.7-3.9-3.9c0-2.2,1.7-3.9,3.9-3.9c2.2,0,3.9,1.7,3.9,3.9
			C-380.7,300.4-382.4,302.1-384.6,302.1z"/>
		<path id="XMLID_163_" class="st5" d="M-379.6,285.8h-9.7c-4.2,0-7.5,3.3-7.5,7.4v9.7c0,4.1,3.3,7.4,7.4,7.4h9.7
			c4.1,0,7.4-3.3,7.4-7.4v-9.7C-372.3,289.1-375.5,285.8-379.6,285.8z"/>
		<path id="XMLID_147_" class="st7" d="M-384.6,292.1c-3.4,0-6,2.8-6,6c0,3.2,2.8,6,6,6c3.2,0,6-2.8,6-6
			C-378.6,294.9-381.2,292.1-384.6,292.1z"/>
		<path id="XMLID_139_" class="st8" d="M-379.6,285.8h-9.7c-4.2,0-7.5,3.3-7.5,7.4v9.7c0,4.1,3.3,7.4,7.4,7.4h9.7
			c4.1,0,7.4-3.3,7.4-7.4v-9.7C-372.3,289.1-375.5,285.8-379.6,285.8z"/>
	</g>
	<path id="XMLID_38_" d="M-378.1,290.3c-0.8,0-1.4,0.6-1.4,1.4c0,0.8,0.6,1.4,1.4,1.4c0.8,0,1.4-0.6,1.4-1.4
		C-376.7,290.9-377.3,290.3-378.1,290.3z"/>
</g>
</svg>
