<?xml version="1.0" encoding="utf-8"?>
<!-- Generator: Adobe Illustrator 19.0.0, SVG Export Plug-In . SVG Version: 6.00 Build 0)  -->
<svg version="1.1" id="Calque_1" xmlns="http://www.w3.org/2000/svg" xmlns:xlink="http://www.w3.org/1999/xlink" x="0px" y="0px"
	 viewBox="-402 281.5 35.6 33.8" style="enable-background:new -402 281.5 35.6 33.8;" xml:space="preserve">
<style type="text/css">
	.st0{display:none;}
	.st1{display:inline;}
	.st2{fill:none;stroke:#010101;stroke-width:2.12;stroke-linecap:round;stroke-linejoin:round;}
	.st3{fill:#010101;}
	.st4{fill:#F7FBF6;}
	.st5{fill:none;stroke:#010101;stroke-width:2;stroke-miterlimit:10;}
	.st6{display:inline;fill:#F7FBF6;}
</style>
<g id="Calque_1_1_" class="st0">
	<g id="XMLID_16_" class="st1">
		<path id="XMLID_444_" class="st2" d="M-794.2,567.8h16.7c1.5,0,2.7,1.2,2.7,2.7v16.7c0,1.5-1.2,2.7-2.7,2.7h-16.7
			c-1.5,0-2.7-1.2-2.7-2.7v-16.8C-796.9,569-795.7,567.8-794.2,567.8z"/>
		<path id="XMLID_443_" class="st2" d="M-790.9,577.1v7.3"/>
		<path id="XMLID_442_" class="st2" d="M-780.9,584.4v-4.3c0-1.7-1.3-3-3-3l0,0c-1.7,0-3,1.3-3,3v4.3"/>
		<g id="XMLID_432_">
			<path id="XMLID_433_" class="st3" d="M-777.6,590.8h-16.6c-2.1,0-3.7-1.7-3.7-3.7v-16.7c0-2.1,1.7-3.7,3.7-3.7h16.7
				c2.1,0,3.7,1.7,3.7,3.7v16.7C-773.8,589.2-775.5,590.8-777.6,590.8z M-794.2,568.8c-0.9,0-1.6,0.7-1.6,1.6v16.7
				c0,0.9,0.7,1.6,1.6,1.6h16.7c0.9,0,1.6-0.7,1.6-1.6v-16.7c0-0.9-0.7-1.6-1.6-1.6H-794.2z M-794.2,568.8c-0.9,0-1.6,0.7-1.6,1.6
				v16.7c0,0.9,0.7,1.6,1.6,1.6h16.7c0.9,0,1.6-0.7,1.6-1.6v-16.7c0-0.9-0.7-1.6-1.6-1.6H-794.2z"/>
		</g>
		<g id="XMLID_418_">
			<g id="XMLID_156_">
				<path id="XMLID_157_" class="st4" d="M-790.9,585.5c-0.6,0-1.1-0.5-1.1-1.1v-7.3c0-0.6,0.5-1.1,1.1-1.1c0.6,0,1.1,0.5,1.1,1.1
					v7.3C-789.8,585-790.3,585.5-790.9,585.5z"/>
			</g>
		</g>
		<g id="XMLID_413_">
			<g id="XMLID_153_">
				<path id="XMLID_154_" class="st4" d="M-780.9,585.5c-0.6,0-1.1-0.5-1.1-1.1v-4.3c0-1.1-0.9-1.9-1.9-1.9s-1.9,0.9-1.9,1.9v4.3
					c0,0.6-0.5,1.1-1.1,1.1c-0.6,0-1.1-0.5-1.1-1.1v-4.3c0-2.2,1.8-4.1,4.1-4.1c2.3,0,4.1,1.8,4.1,4.1v4.3
					C-779.8,585-780.3,585.5-780.9,585.5z"/>
			</g>
		</g>
		<path id="XMLID_148_" class="st4" d="M-790.9,571.4c-0.8,0-1.4,0.6-1.4,1.4s0.6,1.4,1.4,1.4c0.8,0,1.4-0.6,1.4-1.4
			S-790.1,571.4-790.9,571.4z"/>
	</g>
	<g id="XMLID_70_" class="st1">
		<path id="XMLID_409_" class="st3" d="M-628.6,584.1c0,2.8-2.3,5.1-5.1,5.1h-9.7c-2.8,0-5.1-2.3-5.1-5.1v-9.7
			c0-2.8,2.3-5.1,5.1-5.1h9.7c2.8,0,5.1,2.3,5.1,5.1V584.1z"/>
		<path id="XMLID_405_" class="st3" d="M-638.6,573.3c-3.4,0-6,2.8-6,6s2.8,6,6,6c3.3,0,6-2.8,6-6
			C-632.6,576.1-635.2,573.3-638.6,573.3z M-638.6,583.2c-2.2,0-3.9-1.7-3.9-3.9c0-2.2,1.7-3.9,3.9-3.9c2.2,0,3.9,1.7,3.9,3.9
			C-634.7,581.5-636.4,583.2-638.6,583.2z"/>
		<path id="XMLID_402_" class="st3" d="M-633.6,566.9h-9.7c-4.2,0-7.5,3.3-7.5,7.4v9.7c0,4.1,3.3,7.4,7.4,7.4h9.7
			c4.1,0,7.4-3.3,7.4-7.4v-9.7C-626.3,570.2-629.5,566.9-633.6,566.9z M-628.6,584.1c0,2.8-2.3,5.1-5.1,5.1h-9.7
			c-2.8,0-5.1-2.3-5.1-5.1v-9.7c0-2.8,2.3-5.1,5.1-5.1h9.7c2.8,0,5.1,2.3,5.1,5.1V584.1z"/>
		<path id="XMLID_55_" class="st4" d="M-638.6,573.3c-3.4,0-6,2.8-6,6s2.8,6,6,6c3.3,0,6-2.8,6-6
			C-632.6,576.1-635.2,573.3-638.6,573.3z M-638.6,583.2c-2.2,0-3.9-1.7-3.9-3.9c0-2.2,1.7-3.9,3.9-3.9c2.2,0,3.9,1.7,3.9,3.9
			C-634.7,581.5-636.4,583.2-638.6,583.2z"/>
		<path id="XMLID_46_" class="st3" d="M-633.6,566.9h-9.7c-4.2,0-7.5,3.3-7.5,7.4v9.7c0,4.1,3.3,7.4,7.4,7.4h9.7
			c4.1,0,7.4-3.3,7.4-7.4v-9.7C-626.3,570.2-629.5,566.9-633.6,566.9z M-628.6,584.1c0,2.8-2.3,5.1-5.1,5.1h-9.7
			c-2.8,0-5.1-2.3-5.1-5.1v-9.7c0-2.8,2.3-5.1,5.1-5.1h9.7c2.8,0,5.1,2.3,5.1,5.1V584.1z"/>
	</g>
	<g id="XMLID_103_" class="st1">
		<circle id="XMLID_603_" class="st3" cx="-335.8" cy="579.2" r="4.5"/>
		<circle id="XMLID_598_" class="st3" cx="-323" cy="571.5" r="4.5"/>
		<circle id="XMLID_597_" class="st3" cx="-323" cy="586.8" r="4.5"/>
		<polyline id="XMLID_596_" class="st5" points="-323,572.9 -335.8,579.2 -323,586.8 		"/>
		<circle id="XMLID_595_" class="st3" cx="-335.8" cy="579.2" r="4.5"/>
		<circle id="XMLID_590_" class="st3" cx="-323" cy="571.5" r="4.5"/>
		<circle id="XMLID_523_" class="st3" cx="-323" cy="586.8" r="4.5"/>
	</g>
	<g id="XMLID_100_" class="st1">
		<circle id="XMLID_454_" class="st3" cx="-479.7" cy="578.9" r="11.7"/>
		<path id="XMLID_453_" class="st4" d="M-480.4,583.4c-0.5,2.8-1.2,5.5-3.1,6.9c-0.6-4.2,0.9-7.4,1.6-10.8c-1.2-2,0.1-5.9,2.6-5
			c3,1.2-2.6,7.3,1.2,8.1c4,0.8,5.6-6.9,3.1-9.4c-3.6-3.6-10.3-0.1-9.5,5.1c0.2,1.3,1.5,1.6,0.5,3.4c-2.3-0.5-3-2.3-2.9-4.7
			c0.1-3.9,3.5-6.7,6.9-7c4.3-0.5,8.3,1.6,8.9,5.6c0.6,4.6-1.9,9.5-6.5,9.1C-478.9,584.6-479.4,584-480.4,583.4z"/>
	</g>
	<path id="XMLID_408_" class="st6" d="M-632.1,571.4c-0.8,0-1.4,0.6-1.4,1.4s0.6,1.4,1.4,1.4c0.8,0,1.4-0.6,1.4-1.4
		S-631.3,571.4-632.1,571.4z"/>
</g>
<g id="Calque_2">
	<g id="XMLID_61_">
		<g id="XMLID_84_">
			<path class="st3" d="M-374.7,308.2h-16.7c-1.9,0-3.4-1.5-3.4-3.5v-16.7c0-1.9,1.5-3.4,3.4-3.4h16.7c1.9,0,3.5,1.5,3.5,3.4v16.7
				C-371.2,306.7-372.8,308.2-374.7,308.2z M-391.4,286.1c-1.1,0-1.9,0.9-1.9,1.9v16.7c0,1.1,0.9,2,1.9,2h16.7c1.1,0,2-0.9,2-2
				v-16.7c0-1.1-0.9-1.9-2-1.9H-391.4z"/>
		</g>
		<path id="XMLID_83_" class="st2" d="M-388.1,294.8v7.3"/>
		<path id="XMLID_82_" class="st2" d="M-378.1,302.1v-4.3c0-1.7-1.3-3-3-3l0,0c-1.7,0-3,1.3-3,3v4.3"/>
		<g id="XMLID_71_">
			<g id="XMLID_86_">
				<path id="XMLID_87_" class="st3" d="M-388.1,303.2c-0.6,0-1.1-0.5-1.1-1.1v-7.3c0-0.6,0.5-1.1,1.1-1.1s1.1,0.5,1.1,1.1v7.3
					C-387,302.7-387.5,303.2-388.1,303.2z"/>
			</g>
		</g>
		<g id="XMLID_65_">
			<g id="XMLID_74_">
				<path id="XMLID_78_" class="st3" d="M-378.1,303.2c-0.6,0-1.1-0.5-1.1-1.1v-4.3c0-1.1-0.9-1.9-1.9-1.9s-1.9,0.9-1.9,1.9v4.3
					c0,0.6-0.5,1.1-1.1,1.1s-1.1-0.5-1.1-1.1v-4.3c0-2.2,1.8-4.1,4.1-4.1c2.3,0,4.1,1.8,4.1,4.1v4.3
					C-377,302.7-377.5,303.2-378.1,303.2z"/>
			</g>
		</g>
		<path id="XMLID_62_" class="st3" d="M-388.1,289.1c-0.8,0-1.4,0.6-1.4,1.4s0.6,1.4,1.4,1.4s1.4-0.6,1.4-1.4
			S-387.3,289.1-388.1,289.1z"/>
	</g>
</g>
</svg>
