<?xml version="1.0" encoding="utf-8"?>
<!-- Generator: Adobe Illustrator 19.0.0, SVG Export Plug-In . SVG Version: 6.00 Build 0)  -->
<svg version="1.1" id="Calque_1" xmlns="http://www.w3.org/2000/svg" xmlns:xlink="http://www.w3.org/1999/xlink" x="0px" y="0px"
	 viewBox="-402 281.5 35.6 33.8" style="enable-background:new -402 281.5 35.6 33.8;" xml:space="preserve">
<style type="text/css">
	.st0{fill:none;stroke:#010101;stroke-width:2.12;stroke-linecap:round;stroke-linejoin:round;}
	.st1{fill:#010101;}
	.st2{fill:#F7FBF6;}
	.st3{display:none;}
	.st4{display:inline;}
	.st5{fill:none;stroke:#010101;stroke-width:2;stroke-miterlimit:10;}
	.st6{fill:#F7FBF6;stroke:#010101;stroke-width:2;stroke-miterlimit:10;}
	.st7{fill:none;stroke:#010101;stroke-miterlimit:10;}
	.st8{fill:#FFFFFF;stroke:#010101;stroke-width:2;stroke-miterlimit:10;}
	.st9{display:inline;fill:#F9F9FA;}
</style>
<g id="Calque_1_1_">
	<g id="XMLID_16_">
		<path id="XMLID_444_" class="st0" d="M-392.2,286.3h16.7c1.5,0,2.7,1.2,2.7,2.7v16.7c0,1.5-1.2,2.7-2.7,2.7h-16.7
			c-1.5,0-2.7-1.2-2.7-2.7v-16.8C-394.9,287.5-393.7,286.3-392.2,286.3z"/>
		<path id="XMLID_443_" class="st0" d="M-388.9,295.6v7.3"/>
		<path id="XMLID_442_" class="st0" d="M-378.9,302.9v-4.3c0-1.7-1.3-3-3-3l0,0c-1.7,0-3,1.3-3,3v4.3"/>
		<g id="XMLID_432_">
			<path id="XMLID_433_" class="st1" d="M-375.6,309.3h-16.6c-2.1,0-3.7-1.7-3.7-3.7v-16.7c0-2.1,1.7-3.7,3.7-3.7h16.7
				c2.1,0,3.7,1.7,3.7,3.7v16.7C-371.8,307.7-373.5,309.3-375.6,309.3z M-392.2,287.3c-0.9,0-1.6,0.7-1.6,1.6v16.7
				c0,0.9,0.7,1.6,1.6,1.6h16.7c0.9,0,1.6-0.7,1.6-1.6v-16.7c0-0.9-0.7-1.6-1.6-1.6H-392.2z M-392.2,287.3c-0.9,0-1.6,0.7-1.6,1.6
				v16.7c0,0.9,0.7,1.6,1.6,1.6h16.7c0.9,0,1.6-0.7,1.6-1.6v-16.7c0-0.9-0.7-1.6-1.6-1.6H-392.2z"/>
		</g>
		<g id="XMLID_418_">
			<g id="XMLID_156_">
				<path id="XMLID_157_" class="st2" d="M-388.9,304c-0.6,0-1.1-0.5-1.1-1.1v-7.3c0-0.6,0.5-1.1,1.1-1.1s1.1,0.5,1.1,1.1v7.3
					C-387.8,303.5-388.3,304-388.9,304z"/>
			</g>
		</g>
		<g id="XMLID_413_">
			<g id="XMLID_153_">
				<path id="XMLID_154_" class="st2" d="M-378.9,304c-0.6,0-1.1-0.5-1.1-1.1v-4.3c0-1.1-0.9-1.9-1.9-1.9s-1.9,0.9-1.9,1.9v4.3
					c0,0.6-0.5,1.1-1.1,1.1s-1.1-0.5-1.1-1.1v-4.3c0-2.2,1.8-4.1,4.1-4.1c2.3,0,4.1,1.8,4.1,4.1v4.3
					C-377.8,303.5-378.3,304-378.9,304z"/>
			</g>
		</g>
		<path id="XMLID_148_" class="st2" d="M-388.9,289.9c-0.8,0-1.4,0.6-1.4,1.4c0,0.8,0.6,1.4,1.4,1.4c0.8,0,1.4-0.6,1.4-1.4
			C-387.5,290.5-388.1,289.9-388.9,289.9z"/>
	</g>
</g>
<g id="Calque_2" class="st3">
	<g id="XMLID_61_" class="st4">
		<path id="XMLID_84_" class="st0" d="M-392.2,286.6h16.7c1.5,0,2.7,1.2,2.7,2.7V306c0,1.5-1.2,2.7-2.7,2.7h-16.7
			c-1.5,0-2.7-1.2-2.7-2.7v-16.7C-394.9,287.8-393.7,286.6-392.2,286.6z"/>
		<path id="XMLID_83_" class="st0" d="M-388.9,296v7.3"/>
		<path id="XMLID_82_" class="st0" d="M-378.9,303.3V299c0-1.7-1.3-3-3-3l0,0c-1.7,0-3,1.3-3,3v4.3"/>
		<g id="XMLID_76_">
			<path id="XMLID_77_" class="st1" d="M-375.6,309.7h-16.6c-2.1,0-3.7-1.7-3.7-3.7v-16.7c0-2.1,1.7-3.7,3.7-3.7h16.7
				c2.1,0,3.7,1.7,3.7,3.7V306C-371.8,308-373.5,309.7-375.6,309.7z M-392.2,287.7c-0.9,0-1.6,0.7-1.6,1.6V306
				c0,0.9,0.7,1.6,1.6,1.6h16.7c0.9,0,1.6-0.7,1.6-1.6v-16.7c0-0.9-0.7-1.6-1.6-1.6C-375.5,287.7-392.2,287.7-392.2,287.7z"/>
		</g>
		<g id="XMLID_71_">
			<g id="XMLID_86_">
				<path id="XMLID_87_" class="st1" d="M-388.9,304.4c-0.6,0-1.1-0.5-1.1-1.1V296c0-0.6,0.5-1.1,1.1-1.1s1.1,0.5,1.1,1.1v7.3
					C-387.8,303.9-388.3,304.4-388.9,304.4z"/>
			</g>
		</g>
		<g id="XMLID_65_">
			<g id="XMLID_74_">
				<path id="XMLID_78_" class="st1" d="M-378.9,304.4c-0.6,0-1.1-0.5-1.1-1.1V299c0-1.1-0.9-1.9-1.9-1.9s-1.9,0.9-1.9,1.9v4.3
					c0,0.6-0.5,1.1-1.1,1.1s-1.1-0.5-1.1-1.1V299c0-2.2,1.8-4.1,4.1-4.1c2.3,0,4.1,1.8,4.1,4.1v4.3
					C-377.8,303.9-378.3,304.4-378.9,304.4z"/>
			</g>
		</g>
		<path id="XMLID_62_" class="st1" d="M-388.9,290.3c-0.8,0-1.4,0.6-1.4,1.4c0,0.8,0.6,1.4,1.4,1.4c0.8,0,1.4-0.6,1.4-1.4
			C-387.5,290.9-388.1,290.3-388.9,290.3z"/>
	</g>
	<g id="XMLID_36_" class="st4">
		<path id="XMLID_57_" class="st1" d="M-236.6,292.1c-3.4,0-6,2.8-6,6c0,3.2,2.8,6,6,6c3.3,0,6-2.8,6-6
			C-230.6,294.9-233.2,292.1-236.6,292.1z M-236.6,302.1c-2.2,0-3.9-1.7-3.9-3.9c0-2.2,1.7-3.9,3.9-3.9s3.9,1.7,3.9,3.9
			C-232.7,300.4-234.4,302.1-236.6,302.1z"/>
		<path id="XMLID_52_" class="st5" d="M-231.6,285.8h-9.7c-4.2,0-7.5,3.3-7.5,7.4v9.7c0,4.1,3.3,7.4,7.4,7.4h9.7
			c4.1,0,7.4-3.3,7.4-7.4v-9.7C-224.3,289.1-227.5,285.8-231.6,285.8z"/>
		<path id="XMLID_40_" class="st6" d="M-236.6,292.1c-3.4,0-6,2.8-6,6c0,3.2,2.8,6,6,6c3.3,0,6-2.8,6-6
			C-230.6,294.9-233.2,292.1-236.6,292.1z"/>
		<path id="XMLID_37_" class="st7" d="M-231.6,285.8h-9.7c-4.2,0-7.5,3.3-7.5,7.4v9.7c0,4.1,3.3,7.4,7.4,7.4h9.7
			c4.1,0,7.4-3.3,7.4-7.4v-9.7C-224.3,289.1-227.5,285.8-231.6,285.8z"/>
	</g>
	<g id="XMLID_10_" class="st4">
		<circle id="XMLID_33_" class="st1" cx="79" cy="290.3" r="4.5"/>
		<circle id="XMLID_28_" class="st1" cx="79" cy="305.7" r="4.5"/>
		<polyline id="XMLID_27_" class="st5" points="79,291.7 66.2,298 79,305.7 		"/>
		<circle id="XMLID_26_" class="st8" cx="66.2" cy="298" r="4.5"/>
		<circle id="XMLID_18_" class="st8" cx="79" cy="290.3" r="4.5"/>
		<circle id="XMLID_12_" class="st8" cx="79" cy="305.7" r="4.5"/>
	</g>
	<g id="XMLID_6_" class="st4">
		<path id="XMLID_8_" d="M-78.4,302.3c-0.5,2.8-1.2,5.5-3.1,6.9c-0.6-4.2,0.9-7.4,1.6-10.8c-1.2-2,0.1-5.9,2.6-5
			c3,1.2-2.6,7.3,1.2,8.1c4,0.8,5.6-6.9,3.1-9.4c-3.6-3.6-10.3-0.1-9.5,5.1c0.2,1.3,1.5,1.6,0.5,3.4c-2.3-0.5-3-2.3-2.9-4.7
			c0.1-3.9,3.5-6.7,6.9-7c4.3-0.5,8.3,1.6,8.9,5.6c0.6,4.6-1.9,9.5-6.5,9.1C-76.9,303.5-77.4,302.9-78.4,302.3z"/>
	</g>
	<path id="XMLID_3_" class="st9" d="M-230.1,290.3c-0.8,0-1.4,0.6-1.4,1.4c0,0.8,0.6,1.4,1.4,1.4s1.4-0.6,1.4-1.4
		C-228.7,290.9-229.3,290.3-230.1,290.3z"/>
</g>
</svg>
