<?xml version="1.0" encoding="utf-8"?>
<!-- Generator: Adobe Illustrator 19.0.0, SVG Export Plug-In . SVG Version: 6.00 Build 0)  -->
<svg version="1.1" id="Calque_1" xmlns="http://www.w3.org/2000/svg" xmlns:xlink="http://www.w3.org/1999/xlink" x="0px" y="0px"
	 viewBox="-402 281.5 35.6 33.8" style="enable-background:new -402 281.5 35.6 33.8;" xml:space="preserve">
<style type="text/css">
	.st0{fill:#010101;}
	.st1{fill:#F7FBF6;}
	.st2{display:none;}
	.st3{display:inline;}
	.st4{fill:none;stroke:#010101;stroke-width:2.12;stroke-linecap:round;stroke-linejoin:round;}
	.st5{fill:none;stroke:#010101;stroke-width:2;stroke-miterlimit:10;}
	.st6{fill:#F7FBF6;stroke:#010101;stroke-width:2;stroke-miterlimit:10;}
	.st7{fill:none;stroke:#010101;stroke-miterlimit:10;}
	.st8{fill:#FFFFFF;stroke:#010101;stroke-width:2;stroke-miterlimit:10;}
</style>
<g id="Calque_1_1_">
	<g id="XMLID_100_">
		<circle id="XMLID_454_" class="st0" cx="-383.7" cy="297.4" r="11.7"/>
		<path id="XMLID_453_" class="st1" d="M-384.4,301.9c-0.5,2.8-1.2,5.5-3.1,6.9c-0.6-4.2,0.9-7.4,1.6-10.8c-1.2-2,0.1-5.9,2.6-5
			c3,1.2-2.6,7.3,1.2,8.1c4,0.8,5.6-6.9,3.1-9.4c-3.6-3.6-10.3-0.1-9.5,5.1c0.2,1.3,1.5,1.6,0.5,3.4c-2.3-0.5-3-2.3-2.9-4.7
			c0.1-3.9,3.5-6.7,6.9-7c4.3-0.5,8.3,1.6,8.9,5.6c0.6,4.6-1.9,9.5-6.5,9.1C-382.9,303.1-383.4,302.5-384.4,301.9z"/>
	</g>
</g>
<g id="Calque_2" class="st2">
	<g id="XMLID_168_" class="st3">
		<path id="XMLID_186_" class="st4" d="M-698.2,286.6h16.7c1.5,0,2.7,1.2,2.7,2.7V306c0,1.5-1.2,2.7-2.7,2.7h-16.7
			c-1.5,0-2.7-1.2-2.7-2.7v-16.7C-700.9,287.8-699.7,286.6-698.2,286.6z"/>
		<path id="XMLID_185_" class="st4" d="M-694.9,296v7.3"/>
		<path id="XMLID_184_" class="st4" d="M-684.9,303.3V299c0-1.7-1.3-3-3-3l0,0c-1.7,0-3,1.3-3,3v4.3"/>
		<g id="XMLID_180_">
			<path id="XMLID_181_" class="st0" d="M-681.6,309.7h-16.7c-2.1,0-3.7-1.7-3.7-3.7v-16.7c0-2.1,1.7-3.7,3.7-3.7h16.7
				c2.1,0,3.7,1.7,3.7,3.7V306C-677.8,308-679.5,309.7-681.6,309.7z M-698.2,287.7c-0.9,0-1.6,0.7-1.6,1.6V306
				c0,0.9,0.7,1.6,1.6,1.6h16.7c0.9,0,1.6-0.7,1.6-1.6v-16.7c0-0.9-0.7-1.6-1.6-1.6C-681.5,287.7-698.2,287.7-698.2,287.7z"/>
		</g>
		<g id="XMLID_175_">
			<g id="XMLID_177_">
				<path id="XMLID_178_" class="st0" d="M-694.9,304.4c-0.6,0-1.1-0.5-1.1-1.1V296c0-0.6,0.5-1.1,1.1-1.1c0.6,0,1.1,0.5,1.1,1.1
					v7.3C-693.8,303.9-694.3,304.4-694.9,304.4z"/>
			</g>
		</g>
		<g id="XMLID_170_">
			<g id="XMLID_172_">
				<path id="XMLID_173_" class="st0" d="M-684.9,304.4c-0.6,0-1.1-0.5-1.1-1.1V299c0-1.1-0.9-1.9-1.9-1.9s-1.9,0.9-1.9,1.9v4.3
					c0,0.6-0.5,1.1-1.1,1.1c-0.6,0-1.1-0.5-1.1-1.1V299c0-2.2,1.8-4.1,4.1-4.1c2.3,0,4.1,1.8,4.1,4.1v4.3
					C-683.8,303.9-684.3,304.4-684.9,304.4z"/>
			</g>
		</g>
		<path id="XMLID_169_" class="st0" d="M-694.9,290.3c-0.8,0-1.4,0.6-1.4,1.4c0,0.8,0.6,1.4,1.4,1.4c0.8,0,1.4-0.6,1.4-1.4
			C-693.5,290.9-694.1,290.3-694.9,290.3z"/>
	</g>
	<g id="XMLID_128_" class="st3">
		<path id="XMLID_165_" class="st0" d="M-542.6,292.1c-3.4,0-6,2.8-6,6c0,3.2,2.8,6,6,6c3.3,0,6-2.8,6-6
			C-536.6,294.9-539.2,292.1-542.6,292.1z M-542.6,302.1c-2.2,0-3.9-1.7-3.9-3.9c0-2.2,1.7-3.9,3.9-3.9c2.2,0,3.9,1.7,3.9,3.9
			C-538.7,300.4-540.4,302.1-542.6,302.1z"/>
		<path id="XMLID_163_" class="st5" d="M-537.6,285.8h-9.7c-4.2,0-7.5,3.3-7.5,7.4v9.7c0,4.1,3.3,7.4,7.4,7.4h9.7
			c4.1,0,7.4-3.3,7.4-7.4v-9.7C-530.3,289.1-533.5,285.8-537.6,285.8z"/>
		<path id="XMLID_147_" class="st6" d="M-542.6,292.1c-3.4,0-6,2.8-6,6c0,3.2,2.8,6,6,6c3.3,0,6-2.8,6-6
			C-536.6,294.9-539.2,292.1-542.6,292.1z"/>
		<path id="XMLID_139_" class="st7" d="M-537.6,285.8h-9.7c-4.2,0-7.5,3.3-7.5,7.4v9.7c0,4.1,3.3,7.4,7.4,7.4h9.7
			c4.1,0,7.4-3.3,7.4-7.4v-9.7C-530.3,289.1-533.5,285.8-537.6,285.8z"/>
	</g>
	<g id="XMLID_64_" class="st3">
		<circle id="XMLID_87_" class="st0" cx="-227" cy="290.3" r="4.5"/>
		<circle id="XMLID_86_" class="st0" cx="-227" cy="305.7" r="4.5"/>
		<polyline id="XMLID_78_" class="st5" points="-227,291.7 -239.8,298 -227,305.7 		"/>
		<circle id="XMLID_74_" class="st8" cx="-239.8" cy="298" r="4.5"/>
		<circle id="XMLID_68_" class="st8" cx="-227" cy="290.3" r="4.5"/>
		<circle id="XMLID_66_" class="st8" cx="-227" cy="305.7" r="4.5"/>
	</g>
	<g id="XMLID_60_" class="st3">
		<path id="XMLID_63_" d="M-384.4,302.3c-0.5,2.8-1.2,5.5-3.1,6.9c-0.6-4.2,0.9-7.4,1.6-10.8c-1.2-2,0.1-5.9,2.6-5
			c3,1.2-2.6,7.3,1.2,8.1c4,0.8,5.6-6.9,3.1-9.4c-3.6-3.6-10.3-0.1-9.5,5.1c0.2,1.3,1.5,1.6,0.5,3.4c-2.3-0.5-3-2.3-2.9-4.7
			c0.1-3.9,3.5-6.7,6.9-7c4.3-0.5,8.3,1.6,8.9,5.6c0.6,4.6-1.9,9.5-6.5,9.1C-382.9,303.5-383.4,302.9-384.4,302.3z"/>
	</g>
	<path id="XMLID_27_" class="st3" d="M-536.1,290.3c-0.8,0-1.4,0.6-1.4,1.4c0,0.8,0.6,1.4,1.4,1.4c0.8,0,1.4-0.6,1.4-1.4
		C-534.7,290.9-535.3,290.3-536.1,290.3z"/>
</g>
</svg>
