<?xml version="1.0" encoding="utf-8"?>
<!-- Generator: Adobe Illustrator 19.0.0, SVG Export Plug-In . SVG Version: 6.00 Build 0)  -->
<svg version="1.1" id="Calque_1" xmlns="http://www.w3.org/2000/svg" xmlns:xlink="http://www.w3.org/1999/xlink" x="0px" y="0px"
	 viewBox="-402 281.5 35.6 33.8" style="enable-background:new -402 281.5 35.6 33.8;" xml:space="preserve">
<style type="text/css">
	.st0{fill:#010101;}
	.st1{fill:none;stroke:#010101;stroke-width:2;stroke-miterlimit:10;}
	.st2{display:none;}
	.st3{display:inline;}
	.st4{fill:none;stroke:#010101;stroke-width:2.12;stroke-linecap:round;stroke-linejoin:round;}
	.st5{fill:#F7FBF6;stroke:#010101;stroke-width:2;stroke-miterlimit:10;}
	.st6{fill:none;stroke:#010101;stroke-miterlimit:10;}
	.st7{fill:#FFFFFF;stroke:#010101;stroke-width:2;stroke-miterlimit:10;}
</style>
<g id="Calque_1_1_">
	<g id="XMLID_103_">
		<circle id="XMLID_603_" class="st0" cx="-391.8" cy="297.7" r="4.5"/>
		<circle id="XMLID_598_" class="st0" cx="-379" cy="290" r="4.5"/>
		<circle id="XMLID_597_" class="st0" cx="-379" cy="305.3" r="4.5"/>
		<polyline id="XMLID_596_" class="st1" points="-379,291.4 -391.8,297.7 -379,305.3 		"/>
		<circle id="XMLID_595_" class="st0" cx="-391.8" cy="297.7" r="4.5"/>
		<circle id="XMLID_590_" class="st0" cx="-379" cy="290" r="4.5"/>
		<circle id="XMLID_523_" class="st0" cx="-379" cy="305.3" r="4.5"/>
	</g>
</g>
<g id="Calque_2" class="st2">
	<g id="XMLID_137_" class="st3">
		<path id="XMLID_178_" class="st4" d="M-850.2,286.6h16.7c1.5,0,2.7,1.2,2.7,2.7V306c0,1.5-1.2,2.7-2.7,2.7h-16.7
			c-1.5,0-2.7-1.2-2.7-2.7v-16.7C-852.9,287.8-851.7,286.6-850.2,286.6z"/>
		<path id="XMLID_177_" class="st4" d="M-846.9,296v7.3"/>
		<path id="XMLID_176_" class="st4" d="M-836.9,303.3V299c0-1.7-1.3-3-3-3l0,0c-1.7,0-3,1.3-3,3v4.3"/>
		<g id="XMLID_161_">
			<path id="XMLID_171_" class="st0" d="M-833.6,309.7h-16.7c-2.1,0-3.7-1.7-3.7-3.7v-16.7c0-2.1,1.7-3.7,3.7-3.7h16.7
				c2.1,0,3.7,1.7,3.7,3.7V306C-829.8,308-831.5,309.7-833.6,309.7z M-850.2,287.7c-0.9,0-1.6,0.7-1.6,1.6V306
				c0,0.9,0.7,1.6,1.6,1.6h16.7c0.9,0,1.6-0.7,1.6-1.6v-16.7c0-0.9-0.7-1.6-1.6-1.6C-833.5,287.7-850.2,287.7-850.2,287.7z"/>
		</g>
		<g id="XMLID_152_">
			<g id="XMLID_158_">
				<path id="XMLID_159_" class="st0" d="M-846.9,304.4c-0.6,0-1.1-0.5-1.1-1.1V296c0-0.6,0.5-1.1,1.1-1.1c0.6,0,1.1,0.5,1.1,1.1
					v7.3C-845.8,303.9-846.3,304.4-846.9,304.4z"/>
			</g>
		</g>
		<g id="XMLID_140_">
			<g id="XMLID_145_">
				<path id="XMLID_146_" class="st0" d="M-836.9,304.4c-0.6,0-1.1-0.5-1.1-1.1V299c0-1.1-0.9-1.9-1.9-1.9s-1.9,0.9-1.9,1.9v4.3
					c0,0.6-0.5,1.1-1.1,1.1c-0.6,0-1.1-0.5-1.1-1.1V299c0-2.2,1.8-4.1,4.1-4.1c2.3,0,4.1,1.8,4.1,4.1v4.3
					C-835.8,303.9-836.3,304.4-836.9,304.4z"/>
			</g>
		</g>
		<path id="XMLID_138_" class="st0" d="M-846.9,290.3c-0.8,0-1.4,0.6-1.4,1.4c0,0.8,0.6,1.4,1.4,1.4c0.8,0,1.4-0.6,1.4-1.4
			C-845.5,290.9-846.1,290.3-846.9,290.3z"/>
	</g>
	<g id="XMLID_49_" class="st3">
		<path id="XMLID_134_" class="st0" d="M-694.6,292.1c-3.4,0-6,2.8-6,6c0,3.2,2.8,6,6,6c3.2,0,6-2.8,6-6
			C-688.6,294.9-691.2,292.1-694.6,292.1z M-694.6,302.1c-2.2,0-3.9-1.7-3.9-3.9c0-2.2,1.7-3.9,3.9-3.9c2.2,0,3.9,1.7,3.9,3.9
			C-690.7,300.4-692.4,302.1-694.6,302.1z"/>
		<path id="XMLID_132_" class="st1" d="M-689.6,285.8h-9.7c-4.2,0-7.5,3.3-7.5,7.4v9.7c0,4.1,3.3,7.4,7.4,7.4h9.7
			c4.1,0,7.4-3.3,7.4-7.4v-9.7C-682.3,289.1-685.5,285.8-689.6,285.8z"/>
		<path id="XMLID_76_" class="st5" d="M-694.6,292.1c-3.4,0-6,2.8-6,6c0,3.2,2.8,6,6,6c3.2,0,6-2.8,6-6
			C-688.6,294.9-691.2,292.1-694.6,292.1z"/>
		<path id="XMLID_65_" class="st6" d="M-689.6,285.8h-9.7c-4.2,0-7.5,3.3-7.5,7.4v9.7c0,4.1,3.3,7.4,7.4,7.4h9.7
			c4.1,0,7.4-3.3,7.4-7.4v-9.7C-682.3,289.1-685.5,285.8-689.6,285.8z"/>
	</g>
	<g id="XMLID_25_" class="st3">
		<circle id="XMLID_40_" class="st0" cx="-379" cy="290.3" r="4.5"/>
		<circle id="XMLID_39_" class="st0" cx="-379" cy="305.7" r="4.5"/>
		<polyline id="XMLID_38_" class="st1" points="-379,291.7 -391.8,298 -379,305.7 		"/>
		<circle id="XMLID_37_" class="st7" cx="-391.8" cy="298" r="4.5"/>
		<circle id="XMLID_33_" class="st7" cx="-379" cy="290.3" r="4.5"/>
		<circle id="XMLID_26_" class="st7" cx="-379" cy="305.7" r="4.5"/>
	</g>
	<g id="XMLID_12_" class="st3">
		<path id="XMLID_18_" d="M-536.4,302.3c-0.5,2.8-1.2,5.5-3.1,6.9c-0.6-4.2,0.9-7.4,1.6-10.8c-1.2-2,0.1-5.9,2.6-5
			c3,1.2-2.6,7.3,1.2,8.1c4,0.8,5.6-6.9,3.1-9.4c-3.6-3.6-10.3-0.1-9.5,5.1c0.2,1.3,1.5,1.6,0.5,3.4c-2.3-0.5-3-2.3-2.9-4.7
			c0.1-3.9,3.5-6.7,6.9-7c4.3-0.5,8.3,1.6,8.9,5.6c0.6,4.6-1.9,9.5-6.5,9.1C-534.9,303.5-535.4,302.9-536.4,302.3z"/>
	</g>
	<path id="XMLID_6_" class="st3" d="M-688.1,290.3c-0.8,0-1.4,0.6-1.4,1.4c0,0.8,0.6,1.4,1.4,1.4c0.8,0,1.4-0.6,1.4-1.4
		C-686.7,290.9-687.3,290.3-688.1,290.3z"/>
</g>
</svg>
